<svg xmlns="http://www.w3.org/2000/svg" viewBox="0 0 128 128" role="img" aria-labelledby="title desc">
  <title id="title">LinkedIn Reposted Marker icon</title>
  <desc id="desc">A red blocked repost arrow over a job card.</desc>
  <defs>
    <linearGradient id="bg" x1="16" y1="14" x2="112" y2="116" gradientUnits="userSpaceOnUse">
      <stop offset="0" stop-color="#fff8f7"/>
      <stop offset="1" stop-color="#ffd8d3"/>
    </linearGradient>
  </defs>
  <rect x="10" y="10" width="108" height="108" rx="26" fill="url(#bg)"/>
  <rect x="25" y="31" width="78" height="66" rx="12" fill="#ffffff" stroke="#9b1c1c" stroke-width="5"/>
  <rect x="36" y="45" width="43" height="7" rx="3.5" fill="#d86b61"/>
  <rect x="36" y="58" width="56" height="7" rx="3.5" fill="#efb0a8"/>
  <rect x="36" y="71" width="31" height="7" rx="3.5" fill="#efb0a8"/>
  <path d="M91 43c7 0 12 5 12 12v8h6L99 76 88 63h6v-8c0-2-1-3-3-3h-8v-9h8z" fill="#0a66c2"/>
  <circle cx="92" cy="91" r="24" fill="#b42318"/>
  <path d="M78 77l28 28" stroke="#ffffff" stroke-linecap="round" stroke-width="9"/>
</svg>
